<svg preserveAspectRatio="xMidYMid meet" data-bbox="0 0 200 200" xmlns="http://www.w3.org/2000/svg" width="200" height="200" viewBox="0 0 200 200" role="presentation" aria-hidden="true">
    <g>
        <path d="M185.5 135.2v-1.8c-1-37.9-27.2-69.7-62.5-79.5.2-.5.4-1 .4-1.6v-2.1c0-13-10.7-24-23.3-24C87 26.1 76.7 36 76.7 48.7v3.5c0 .6.1 1.1.4 1.6-35.5 10-61.8 42.5-62.5 81.3-8.1.5-14.6 7.2-14.6 15.5v7.8c0 8.6 7 15.5 15.5 15.5h168.9c8.6 0 15.5-7 15.5-15.5v-7.8c.1-8.2-6.3-14.9-14.4-15.4zm-101-86.5c0-8.5 6.7-14.8 15.5-14.8 8.4 0 15.5 7.4 15.5 16.3v2c-5-.9-10.2-1.5-15.5-1.5-5.3 0-10.5.5-15.5 1.5v-3.5zm15.5 9.8c42.7 0 77.4 34.3 77.7 76.6H22.4c.9-42.4 35.4-76.6 77.6-76.6zm92.2 99.9c0 4.3-3.5 7.8-7.8 7.8H15.5c-4.3 0-7.8-3.5-7.8-7.8v-7.8c0-4.3 3.5-7.8 7.8-7.8h168.9c4.3 0 7.8 3.5 7.8 7.8v7.8z" fill="#fc9f13" data-color="1"></path>
    </g>
</svg>