<svg preserveAspectRatio="xMidYMid meet" data-bbox="0 0 200 200" xmlns="http://www.w3.org/2000/svg" width="200" height="200" viewBox="0 0 200 200" role="presentation" aria-hidden="true">
    <g>
        <path d="M104.3 136.9l-4.8-2.4c-9.1-4.5-10.6-5.6-10.6-10.4 0-8.1 8.5-8.7 11.2-8.7 2.6 0 10.9.6 10.9 8.7 0 2.3 1.9 4.2 4.2 4.2s4.2-1.9 4.2-4.2c0-8.9-5.9-15.3-15.1-16.7v-6.9c0-2.3-1.9-4.2-4.2-4.2s-4.2 1.9-4.2 4.2v6.9c-9.3 1.4-15.3 7.8-15.3 16.7 0 10.4 6.4 13.5 15.2 17.9l4.8 2.4c9.1 4.5 10.6 5.6 10.6 10.4 0 8-8.5 8.6-11.2 8.6s-11.2-.6-11.2-8.6c0-2.3-1.9-4.2-4.2-4.2s-4.2 1.9-4.2 4.2c0 8.9 6 15.2 15.3 16.6v8.3c0 2.3 1.9 4.2 4.2 4.2s4.2-1.9 4.2-4.2v-8.3c9.3-1.4 15.3-7.8 15.3-16.6.1-10.4-6.3-13.5-15.1-17.9z" fill="#fc9f13" data-color="1"></path>
        <path d="M179.2 0H20.8c-2.3 0-4.2 1.9-4.2 4.2v191.7c0 2.3 1.9 4.2 4.2 4.2h158.3c2.3 0 4.2-1.9 4.2-4.2V4.2c0-2.3-1.8-4.2-4.1-4.2zM175 191.7H25V8.3h150v183.4z" fill="#fc9f13" data-color="1"></path>
        <path d="M66.7 33.3h66.7c2.3 0 4.2-1.9 4.2-4.2s-1.9-4.2-4.2-4.2H66.7c-2.3 0-4.2 1.9-4.2 4.2s1.9 4.2 4.2 4.2z" fill="#fc9f13" data-color="1"></path>
        <path d="M133.3 75H66.7c-2.3 0-4.2 1.9-4.2 4.2s1.9 4.2 4.2 4.2h66.7c2.3 0 4.2-1.9 4.2-4.2s-2-4.2-4.3-4.2z" fill="#fc9f13" data-color="1"></path>
        <path d="M41.7 58.3h116.7c2.3 0 4.2-1.9 4.2-4.2s-1.9-4.2-4.2-4.2H41.7c-2.3 0-4.2 1.9-4.2 4.2s1.9 4.2 4.2 4.2z" fill="#fc9f13" data-color="1"></path>
    </g>
</svg>