<svg preserveAspectRatio="xMidYMid meet" data-bbox="0 0 200 200" xmlns="http://www.w3.org/2000/svg" width="200" height="200" viewBox="0 0 200 200" role="presentation"  aria-hidden="true">
<defs><style>#comp-l0j83ypt5 svg [data-color="1"] {fill: #fc9f13;}</style></defs>
    <g>
        <path 
        d="M100 0C44.9 0 0 44.9 0 100s44.9 100 100 100 100-44.9 100-100S155.1 0 100 0zm0 192c-50.7 0-92-41.3-92-92S49.3 8 100 8s92 41.3 92 92-41.3 92-92 92zm45.6-131.6l-50.3 75.8c-.7 1-1.8 1.7-3.1 1.9h-.4c-1.1 0-2.2-.4-3-1.2L54.9 103c-1.6-1.6-1.6-4.3 0-5.9 1.6-1.6 4.3-1.6 5.9 0l30.3 30.3 47.5-71.6c1.3-1.9 3.9-2.5 5.8-1.2 2 1.2 2.5 3.8 1.2 5.8z" fill="#fc9f13" data-color="1"></path>
    </g>
</svg>