<svg preserveAspectRatio="xMidYMid meet" data-bbox="0 0 200 200" xmlns="http://www.w3.org/2000/svg" width="200" height="200" viewBox="0 0 200 200" role="presentation" aria-hidden="true">
    <g>
        <path d="M196.9 141.2c.5-.8.8-1.7.6-2.7L183.8 35.2C181.7 19.6 168.3 8.3 152 8.3H50.8C34.5 8.3 21.1 19.6 19 35.1L5.1 137.7C1.9 142.4 0 148 0 154.2v8.3c0 16.1 13.1 29.2 29.2 29.2h141.7c16.1 0 29.2-13.1 29.2-29.2v-8.3c-.1-4.7-1.2-9.1-3.2-13zM27.3 36.3c1.6-11.5 11.2-19.6 23.5-19.6H152c12.3 0 22 8.1 23.5 19.6l12.6 94.4c-4.8-3.6-10.8-5.7-17.3-5.7H29.2c-5.2 0-10.2 1.4-14.4 3.8l12.5-92.5zm164.4 126.2c0 11.5-9.3 20.8-20.8 20.8H29.2c-11.5 0-20.8-9.3-20.8-20.8v-8.3c0-3.9 1.2-7.6 3.1-10.7.7-.5 1.3-1.3 1.5-2.2 3.8-4.8 9.6-7.9 16.2-7.9h141.7c11.5 0 20.8 9.3 20.8 20.8v8.3zM166 143.9c-6.9 0-12.5 5.6-12.5 12.5s5.6 12.5 12.5 12.5 12.5-5.6 12.5-12.5-5.6-12.5-12.5-12.5zm0 16.7c-2.3 0-4.2-1.9-4.2-4.2 0-2.3 1.9-4.2 4.2-4.2 2.3 0 4.2 1.9 4.2 4.2 0 2.3-1.9 4.2-4.2 4.2zM66 85.4c.5 1.4 1 2.7 1.6 4-1.5 2.1-2.3 4.6-2.3 7.3 0 3.3 1.3 6.5 3.7 8.8 2.4 2.4 5.5 3.7 8.8 3.7 2.6 0 5.2-.8 7.3-2.3 1.3.6 2.6 1.2 4 1.6 1 5.9 6.1 10.5 12.3 10.5s11.4-4.5 12.3-10.5c1.4-.5 2.7-1 4-1.6 2.1 1.5 4.6 2.3 7.3 2.3 3.3 0 6.5-1.3 8.8-3.7 2.4-2.4 3.7-5.5 3.7-8.8 0-2.7-.8-5.2-2.3-7.3.6-1.3 1.2-2.6 1.6-4 5.9-1 10.5-6.1 10.5-12.3 0-6.2-4.5-11.4-10.5-12.3-.5-1.4-1-2.7-1.6-4 1.5-2.1 2.3-4.6 2.3-7.3 0-3.3-1.3-6.5-3.7-8.8-4.4-4.4-11.2-4.8-16.1-1.3-1.3-.6-2.6-1.2-4-1.6-1-5.9-6.1-10.5-12.3-10.5S90 31.8 89.1 37.8c-1.4.5-2.7 1-4 1.6-4.9-3.5-11.7-3-16.1 1.3-2.4 2.4-3.7 5.5-3.7 8.8 0 2.7.8 5.2 2.3 7.3-.6 1.3-1.2 2.6-1.6 4-5.9 1-10.5 6.1-10.5 12.3S60.1 84.4 66 85.4zm2.2-16.5c.1 0 .5.1.6.1 2 .2 3.9-1.1 4.4-3.1.7-2.8 1.8-5.4 3.2-7.7 1.1-1.8.7-4.1-1-5.4-.2-.2-.5-.3-.7-.5-.6-.8-1-1.7-1-2.7 0-1.1.4-2.2 1.2-2.9 1.6-1.6 4.1-1.6 5.7-.2.1.2.3.5.5.7 1.3 1.7 3.6 2.1 5.5 1.1 2.4-1.4 5-2.5 7.8-3.2 2-.5 3.3-2.4 3.1-4.5l-.1-.6c0-2.3 1.9-4.2 4.2-4.2s4.2 1.9 4.2 4.1l-.1.6c-.2 2.1 1.1 4 3.1 4.5 2.8.7 5.4 1.8 7.8 3.2 1.8 1.1 4.1.7 5.4-1 .2-.2.3-.5.5-.7 1.6-1.4 4.1-1.3 5.7.2.8.8 1.2 1.8 1.2 2.9 0 1-.3 1.9-1 2.7-.2.1-.5.3-.7.5-1.7 1.3-2.1 3.6-1 5.4 1.4 2.4 2.5 5 3.2 7.7.5 2 2.4 3.3 4.4 3.1.1 0 .6-.1.7-.1 2.3 0 4.1 1.9 4.1 4.2 0 2.3-1.9 4.2-4.1 4.2l-.6-.1c-2.1-.2-4 1.1-4.5 3.1-.7 2.7-1.8 5.3-3.2 7.8-1.1 1.8-.6 4.1 1 5.4.2.2.5.3.7.5.7.8 1 1.7 1 2.7 0 1.1-.4 2.2-1.2 2.9-.8.8-1.8 1.2-2.9 1.2-1 0-2-.4-2.7-1-.2-.3-.3-.5-.5-.7-1.3-1.6-3.6-2-5.4-1-2.4 1.4-5 2.5-7.8 3.2-2 .5-3.3 2.4-3.1 4.5l.1.6c0 2.3-1.9 4.2-4.2 4.2s-4.2-1.9-4.2-4.1l.1-.6c.2-2.1-1.1-4-3.1-4.5-2.8-.7-5.4-1.8-7.8-3.2-.7-.4-1.4-.6-2.1-.6-1.3 0-2.5.6-3.3 1.6-.2.2-.3.4-.5.7-.8.6-1.7 1-2.7 1-1.1 0-2.2-.4-2.9-1.2-.8-.8-1.2-1.8-1.2-2.9 0-1 .4-2 1-2.7.3-.2.5-.3.7-.5 1.6-1.3 2.1-3.6 1-5.4-1.4-2.4-2.5-5-3.2-7.7-.5-2-2.5-3.4-4.5-3.1l-.6.1c-2.3 0-4.2-1.9-4.2-4.2-.3-2.5 1.6-4.4 4-4.4zm33.2 19.4c8.4 0 15.3-6.9 15.3-15.3s-6.9-15.3-15.3-15.3S86.1 64.6 86.1 73s6.9 15.3 15.3 15.3zm0-22.2c3.8 0 6.9 3.1 6.9 6.9s-3.1 6.9-6.9 6.9c-3.8 0-6.9-3.1-6.9-6.9s3.1-6.9 6.9-6.9z" fill="#fc9f13" data-color="1"></path>
    </g>
</svg>