<svg preserveAspectRatio="xMidYMid meet" data-bbox="0 0 200 200" xmlns="http://www.w3.org/2000/svg" width="200" height="200" viewBox="0 0 200 200" role="presentation" aria-hidden="true">
    <g>
        <path d="M170.8 91.7h-4.2v-35c0-33.4-24.8-56.7-60.4-56.7h-8.3C61.1 0 33.3 24.4 33.3 56.7v35h-4.2c-2.3 0-4.2 1.9-4.2 4.2v60.9c0 23.1 20.4 43.3 43.7 43.3h66.7c22.2 0 39.6-19 39.6-43.3v-61c.1-2.3-1.8-4.1-4.1-4.1zm-129.1-35c0-24 19.3-48.3 56.2-48.3h8.3c31.2 0 52.1 19.4 52.1 48.3v35H41.7v-35zm125 100c0 19.6-13.7 35-31.3 35H68.7c-18.5 0-35.4-16.7-35.4-35V100h133.3v56.7zm-83.4 0c0 6 6.7 18.3 14.6 18.3h8.3c8.2 0 10.4-12 10.4-18.3v-12.1c4.6-4.2 5.2-9.3 5.2-12.9 0-11.7-8.9-20.8-20.3-20.8-11.7 0-21.6 9.5-21.6 20.8v1.6c-.1 3.3-.2 7.7 3.4 11.3v12.1zm4.9-23.2v-1.8c0-6.7 6.2-12.5 13.3-12.5 6.7 0 12 5.5 12 12.5 0 3.7-1 5.8-3.4 7.5-1.1.8-1.8 2.1-1.8 3.4v14.1c0 4.1-1.3 8.9-2.4 10H98c-1.9-.4-6.3-6.9-6.3-10v-14.1c0-1.4-.7-2.6-1.8-3.4-1.6-1.1-1.7-2-1.7-5.7z" fill="#fc9f13" data-color="1"></path>
    </g>
</svg>